<svg id="logos" xmlns="http://www.w3.org/2000/svg" viewBox="0 0 544.8 115.2"><defs><style>.cls-1{fill:#008774;}.cls-2{fill:#00ae9e;}.cls-3{fill:#ffffff;}</style></defs><title>PivotalCloudFoundry-Logo-Horizontal-OnLight</title><path class="cls-1" d="M84.49,89.65a41.54,41.54,0,1,0-81.59,11h0a41.22,41.22,0,0,0,1.29,3.93,1.71,1.71,0,0,0,1.6,1.08H17.09a1.7,1.7,0,0,0,1.5-2.52c-0.45-.8-0.85-1.64-1.21-2.49h0a27.84,27.84,0,1,1,53.41-11,27.61,27.61,0,0,1-2.29,11h0a27.78,27.78,0,0,1-1.3,2.63,1.6,1.6,0,0,0,1.41,2.38H80.18a1.6,1.6,0,0,0,1.5-1,41.18,41.18,0,0,0,1.31-4h0A41.37,41.37,0,0,0,84.49,89.65Z" transform="translate(-1.41 -1.53)"/><path class="cls-2" d="M90.35,34.41a52.69,52.69,0,0,0-51,66.14h0c0.35,1.35.74,2.69,1.2,4a1.67,1.67,0,0,0,1.58,1.1H53.32a1.66,1.66,0,0,0,1.51-2.35c-0.41-.9-0.77-1.82-1.11-2.75h0a39,39,0,1,1,73.29,0h0q-0.53,1.46-1.17,2.87a1.57,1.57,0,0,0,1.43,2.23H138.6a1.59,1.59,0,0,0,1.5-1c0.47-1.33.86-2.68,1.22-4.05h0A52.69,52.69,0,0,0,90.35,34.41Z" transform="translate(-1.41 -1.53)"/><path class="cls-1" d="M119.54,48.27a46.74,46.74,0,1,0-93.48,0c0,1.44.08,2.86,0.2,4.26H40a33,33,0,1,1,65.82-4.26c0,0.6,0,1.2-.05,1.79h0a32.85,32.85,0,0,1-6.6,18.09A1.77,1.77,0,0,0,100.59,71h12a1.78,1.78,0,0,0,1.58-.94,46.42,46.42,0,0,0,5.35-20h0C119.51,49.47,119.54,48.87,119.54,48.27Z" transform="translate(-1.41 -1.53)"/><path class="cls-3" d="M169.37,51.95V14.25h15.15c7.57,0,11.81,5.2,11.81,11.36S192,37,184.52,37H174.07v15h-4.69Zm22.1-26.34c0-4.24-3.05-7.18-7.52-7.18h-9.89V32.79H184C188.42,32.79,191.47,29.85,191.47,25.61Z" transform="translate(-1.41 -1.53)"/><path class="cls-3" d="M200.57,17.92a2.85,2.85,0,1,1,5.71,0A2.85,2.85,0,0,1,200.57,17.92Zm0.73,34V24.65h4.24v27.3h-4.24Z" transform="translate(-1.41 -1.53)"/><path class="cls-3" d="M220.94,51.95l-11.36-27.3h4.58L223.26,47l9-22.38h4.63l-11.36,27.3h-4.63Z" transform="translate(-1.41 -1.53)"/><path class="cls-3" d="M238.3,38.27c0-7.91,5.2-14.3,13.51-14.3s13.51,6.39,13.51,14.3-5.2,14.36-13.51,14.36S238.3,46.18,238.3,38.27Zm22.55,0c0-5.54-3.22-10.51-9-10.51s-9.1,5-9.1,10.51,3.28,10.57,9.1,10.57S260.85,43.87,260.85,38.27Z" transform="translate(-1.41 -1.53)"/><path class="cls-3" d="M272,46.24V28.38h-4.52V24.65H272V17.19h4.24v7.46h5.54v3.73h-5.54v17c0,2,.9,3.5,2.77,3.5a4.09,4.09,0,0,0,2.88-1.13l1.24,3.17a6.93,6.93,0,0,1-5.09,1.75C274,52.63,272,50.31,272,46.24Z" transform="translate(-1.41 -1.53)"/><path class="cls-3" d="M304.3,51.95V48.84a11.81,11.81,0,0,1-9,3.79c-4.63,0-9.55-3.11-9.55-9,0-6.1,4.92-9,9.55-9a11.41,11.41,0,0,1,9,3.73V33.41c0-3.67-2.94-5.77-6.9-5.77A10.84,10.84,0,0,0,289,31.43l-2-2.94A14.29,14.29,0,0,1,298,24c5.76,0,10.57,2.6,10.57,9.21V51.95H304.3Zm0-5.76V41a9.14,9.14,0,0,0-7.52-3.39c-4,0-6.73,2.49-6.73,6s2.77,5.93,6.73,5.93A9.14,9.14,0,0,0,304.3,46.18Z" transform="translate(-1.41 -1.53)"/><path class="cls-3" d="M316.11,51.95V14.25h4.24v37.7h-4.24Z" transform="translate(-1.41 -1.53)"/><path class="cls-3" d="M166.89,86.83c0-11.59,8.76-19.5,20.06-19.5a17.26,17.26,0,0,1,15.77,9.21l-6.9,3.39A10.22,10.22,0,0,0,187,74.45c-6.84,0-11.81,5.26-11.81,12.38s5,12.38,11.81,12.38a10.11,10.11,0,0,0,8.87-5.48l6.9,3.33c-2.71,4.69-7.46,9.27-15.77,9.27C175.65,106.33,166.89,98.42,166.89,86.83Z" transform="translate(-1.41 -1.53)"/><path class="cls-3" d="M206.23,105.65V68h7.18v37.7h-7.18Z" transform="translate(-1.41 -1.53)"/><path class="cls-3" d="M217.84,92c0-7.74,5.43-14.3,14.41-14.3s14.47,6.56,14.47,14.3-5.43,14.36-14.47,14.36S217.84,99.77,217.84,92Zm21.42,0c0-4.24-2.54-7.91-7-7.91s-7,3.67-7,7.91,2.49,8,7,8S239.26,96.27,239.26,92Z" transform="translate(-1.41 -1.53)"/><path class="cls-3" d="M269.56,105.65V102.2a12.78,12.78,0,0,1-9.61,4.13c-6,0-8.82-3.28-8.82-8.59V78.35h7.18V94.91c0,3.79,2,5,5,5a8,8,0,0,0,6.22-3.11V78.35h7.18v27.3h-7.18Z" transform="translate(-1.41 -1.53)"/><path class="cls-3" d="M301.87,105.65v-3.5a10.6,10.6,0,0,1-8.42,4.18c-6.9,0-12.09-5.2-12.09-14.3,0-8.93,5.14-14.36,12.09-14.36a10.51,10.51,0,0,1,8.42,4.18V68h7.23v37.7h-7.23Zm0-8.82V87.17a7.81,7.81,0,0,0-6.22-3.11c-4.07,0-6.9,3.22-6.9,8s2.83,7.91,6.9,7.91A7.81,7.81,0,0,0,301.87,96.84Z" transform="translate(-1.41 -1.53)"/><path class="cls-3" d="M330.31,105.65V68H357V75H338.34v8h18.26v7.06H338.34v15.6h-8Z" transform="translate(-1.41 -1.53)"/><path class="cls-3" d="M359.74,92c0-7.74,5.43-14.3,14.41-14.3s14.47,6.56,14.47,14.3-5.43,14.36-14.47,14.36S359.74,99.77,359.74,92Zm21.42,0c0-4.24-2.54-7.91-7-7.91s-7,3.67-7,7.91,2.49,8,7,8S381.16,96.27,381.16,92Z" transform="translate(-1.41 -1.53)"/><path class="cls-3" d="M411.45,105.65V102.2a12.78,12.78,0,0,1-9.61,4.13c-6,0-8.82-3.28-8.82-8.59V78.35h7.18V94.91c0,3.79,2,5,5,5a8,8,0,0,0,6.22-3.11V78.35h7.18v27.3h-7.18Z" transform="translate(-1.41 -1.53)"/><path class="cls-3" d="M443.18,105.65V89.15c0-3.79-2-5.09-5-5.09a7.77,7.77,0,0,0-6.22,3.22v18.37h-7.18V78.35h7.18v3.56a12.5,12.5,0,0,1,9.55-4.24c6,0,8.87,3.39,8.87,8.7v19.27h-7.18Z" transform="translate(-1.41 -1.53)"/><path class="cls-3" d="M475.4,105.65v-3.5a10.6,10.6,0,0,1-8.42,4.18c-6.9,0-12.09-5.2-12.09-14.3,0-8.93,5.14-14.36,12.09-14.36a10.51,10.51,0,0,1,8.42,4.18V68h7.23v37.7H475.4Zm0-8.82V87.17a7.81,7.81,0,0,0-6.22-3.11c-4.07,0-6.9,3.22-6.9,8s2.83,7.91,6.9,7.91A7.81,7.81,0,0,0,475.4,96.84Z" transform="translate(-1.41 -1.53)"/><path class="cls-3" d="M488.76,105.65V78.35h7.18v3.73a11.73,11.73,0,0,1,8.7-4.41v7a9.52,9.52,0,0,0-2-.17c-2.38,0-5.54,1.36-6.73,3.11v18h-7.18Z" transform="translate(-1.41 -1.53)"/><path class="cls-3" d="M510.08,109.89a6.19,6.19,0,0,0,2.26.45c1.87,0,3.11-.51,3.79-2l1-2.32L506.07,78.35h7.69l7.12,19,7.12-19h7.74l-12.83,31.76c-2,5.14-5.65,6.5-10.34,6.61a19.6,19.6,0,0,1-3.56-.4Z" transform="translate(-1.41 -1.53)"/><path class="cls-3" d="M541.76,87.1a4.44,4.44,0,1,1,4.44-4.44A4.44,4.44,0,0,1,541.76,87.1Zm0-8.21a3.77,3.77,0,1,0,3.77,3.77A3.76,3.76,0,0,0,541.76,78.89ZM543,85.22l-1.32-2h-0.88v2h-0.71V80.13h2.07a1.58,1.58,0,0,1,1.65,1.55,1.49,1.49,0,0,1-1.3,1.51l1.36,2H543Zm-0.84-4.46h-1.36v1.8h1.36A0.9,0.9,0,1,0,542.14,80.76Z" transform="translate(-1.41 -1.53)"/></svg>
