<svg xmlns="http://www.w3.org/2000/svg" xmlns:xlink="http://www.w3.org/1999/xlink" version="1.1" x="0px" y="0px" viewBox="0 0 100 100" enable-background="new 0 0 100 100" xml:space="preserve"><path fill="#000000" d="M79.359,30c0-0.376-0.185-0.687-0.433-0.928c-0.005-0.004-0.005-0.01-0.011-0.014l-0.15-0.152  c-0.019-0.012-0.026-0.033-0.044-0.044L60.25,10.391c-0.169-0.168-0.383-0.265-0.609-0.324c-0.055-0.015-0.102-0.023-0.156-0.031  C59.424,10.027,59.37,10,59.308,10H21.974c-0.737,0-1.333,0.596-1.333,1.333v77.334c0,0.736,0.596,1.333,1.333,1.333h56  c0.737,0,1.333-0.597,1.333-1.333V30.258C79.326,30.172,79.359,30.091,79.359,30z M23.308,87.334V12.667h34.667V30  c0,0.737,0.596,1.333,1.333,1.333h17.333v56.001H23.308z"></path><path fill="#000000" d="M43.308,47.471c0,2.211-1.791,4-4,4c-2.21,0-4-1.789-4-4c0-2.208,1.79-4,4-4  c1.329,0,2.506,0.649,3.234,1.646C43.023,45.777,43.308,46.591,43.308,47.471z"></path><circle fill="#000000" cx="60.641" cy="47.471" r="4"></circle><path fill="#000000" d="M57.975,67.078c-0.738,0-1.334-0.597-1.334-1.333c0-3.678-2.989-6.667-6.666-6.667  c-3.678,0-6.667,2.989-6.667,6.667c0,0.736-0.597,1.333-1.334,1.333c-0.737,0-1.333-0.597-1.333-1.333  c0-5.146,4.188-9.334,9.334-9.334c5.146,0,9.333,4.188,9.333,9.334C59.308,66.481,58.711,67.078,57.975,67.078z"></path></svg>