<?xml version="1.0" encoding="utf-8"?>
<!-- Generator: Adobe Illustrator 20.1.0, SVG Export Plug-In . SVG Version: 6.00 Build 0)  -->
<svg version="1.1" id="Layer_1" xmlns="http://www.w3.org/2000/svg" xmlns:xlink="http://www.w3.org/1999/xlink" x="0px" y="0px"
	 viewBox="0 0 256 256" style="enable-background:new 0 0 256 256;" xml:space="preserve">
<style type="text/css">
	.st0{fill:#FFFFFF;}
	.st1{fill:#9DD8D5;}
	.st2{fill:#01AD9D;}
	.st3{fill:none;stroke:#01AD9D;stroke-width:8;stroke-miterlimit:10;}
</style>
<g>
	<g>
		<path class="st0" d="M128,252C59.6,252,4,196.4,4,128C4,59.6,59.6,4,128,4s124,55.6,124,124C252,196.4,196.4,252,128,252z"/>
		<path class="st1" d="M128,8c32.1,0,62.2,12.5,84.9,35.1C235.5,65.8,248,95.9,248,128s-12.5,62.2-35.1,84.9
			C190.2,235.5,160.1,248,128,248s-62.2-12.5-84.9-35.1S8,160.1,8,128s12.5-62.2,35.1-84.9S95.9,8,128,8 M128,0C57.3,0,0,57.3,0,128
			s57.3,128,128,128s128-57.3,128-128S198.7,0,128,0L128,0z"/>
	</g>
</g>
<g>
	<rect x="75.5" y="115.4" class="st2" width="12" height="23.7"/>
	<g>
		<circle class="st3" cx="128.5" cy="127.2" r="43"/>
		<circle class="st2" cx="128.5" cy="127.2" r="21.5"/>
	</g>
	<g>
		<path class="st0" d="M131.9,135.2c-4.4,0-8-3.6-8-8c0-4.4,3.6-8,8-8h76.2c4.4,0,8,3.6,8,8c0,4.4-3.6,8-8,8H131.9z"/>
		<path class="st2" d="M208.1,123.2c2.2,0,4,1.8,4,4c0,2.2-1.8,4-4,4h-76.2c-2.2,0-4-1.8-4-4c0-2.2,1.8-4,4-4H208.1 M208.1,115.2
			h-76.2c-6.6,0-12,5.4-12,12s5.4,12,12,12h76.2c6.6,0,12-5.4,12-12S214.7,115.2,208.1,115.2L208.1,115.2z"/>
	</g>
	<g>
		<path class="st0" d="M47.9,135.2c-4.4,0-8-3.6-8-8c0-4.4,3.6-8,8-8h29.3c4.4,0,8,3.6,8,8c0,4.4-3.6,8-8,8H47.9z"/>
		<path class="st2" d="M77.2,123.2c2.2,0,4,1.8,4,4c0,2.2-1.8,4-4,4H47.9c-2.2,0-4-1.8-4-4c0-2.2,1.8-4,4-4H77.2 M77.2,115.2H47.9
			c-6.6,0-12,5.4-12,12s5.4,12,12,12h29.3c6.6,0,12-5.4,12-12S83.9,115.2,77.2,115.2L77.2,115.2z"/>
	</g>
</g>
</svg>
