<?xml version="1.0" encoding="utf-8"?>
<!-- Generator: Adobe Illustrator 20.1.0, SVG Export Plug-In . SVG Version: 6.00 Build 0)  -->
<svg version="1.1" id="Layer_1" xmlns="http://www.w3.org/2000/svg" xmlns:xlink="http://www.w3.org/1999/xlink" x="0px" y="0px"
	 viewBox="0 0 256 256" style="enable-background:new 0 0 256 256;" xml:space="preserve">
<style type="text/css">
	.st0{fill:#FFFFFF;}
	.st1{fill:#9DD8D5;}
	.st2{fill:none;stroke:#01AD9D;stroke-width:8;stroke-linecap:round;stroke-miterlimit:10;}
</style>
<g>
	<g>
		<path class="st0" d="M128,252C59.6,252,4,196.4,4,128S59.6,4,128,4s124,55.6,124,124S196.4,252,128,252z"/>
		<path class="st1" d="M128,8c32.1,0,62.2,12.5,84.9,35.1C235.5,65.8,248,95.9,248,128s-12.5,62.2-35.1,84.9
			C190.2,235.5,160.1,248,128,248s-62.2-12.5-84.9-35.1C20.5,190.2,8,160.1,8,128s12.5-62.2,35.1-84.9S95.9,8,128,8 M128,0
			C57.3,0,0,57.3,0,128s57.3,128,128,128s128-57.3,128-128S198.7,0,128,0L128,0z"/>
	</g>
	<g>
		<path class="st2" d="M129.5,145.9c-22.1,0.4-40.3-17.2-40.7-39.3c-0.4-22.1,17.2-40.3,39.3-40.7c22.1-0.4,40.3,17.2,40.7,39.3"/>
		<polyline class="st2" points="122.2,133.5 134.9,146.3 122.2,159 		"/>
		<g>
			<path class="st2" d="M128.1,110.1c22.1-0.4,40.3,17.2,40.7,39.3c0.4,22.1-17.2,40.3-39.3,40.7c-22.1,0.4-40.3-17.2-40.7-39.3"/>
			<polyline class="st2" points="135.4,97.6 122.6,110.3 135.4,123.1 			"/>
		</g>
	</g>
</g>
</svg>
