<?xml version="1.0" encoding="utf-8"?>
<!-- Generator: Adobe Illustrator 20.1.0, SVG Export Plug-In . SVG Version: 6.00 Build 0)  -->
<svg version="1.1" id="Layer_1" xmlns="http://www.w3.org/2000/svg" xmlns:xlink="http://www.w3.org/1999/xlink" x="0px" y="0px"
	 viewBox="0 0 256 256" style="enable-background:new 0 0 256 256;" xml:space="preserve">
<style type="text/css">
	.st0{fill:#FFFFFF;}
	.st1{fill:#9DD8D5;}
	.st2{fill:#01AD9D;}
</style>
<g>
	<path class="st0" d="M128.1,251.6c-68.4,0-124-55.6-124-124c0-68.4,55.6-124,124-124s124,55.6,124,124
		C252.1,196,196.5,251.6,128.1,251.6z"/>
	<path class="st1" d="M128.1,7.6c32.1,0,62.2,12.5,84.9,35.1s35.1,52.8,35.1,84.9s-12.5,62.2-35.1,84.9
		c-22.7,22.7-52.8,35.1-84.9,35.1s-62.2-12.5-84.9-35.1c-22.7-22.7-35.1-52.8-35.1-84.9s12.5-62.2,35.1-84.9
		C65.9,20.1,96,7.6,128.1,7.6 M128.1-0.4c-70.7,0-128,57.3-128,128s57.3,128,128,128s128-57.3,128-128S198.8-0.4,128.1-0.4
		L128.1-0.4z"/>
</g>
<g>
	<g>
		<path class="st2" d="M141.9,147.2c0-21.2-17.2-38.4-38.4-38.4S65.1,126,65.1,147.2c0,3.5,0.5,6.9,1.4,10.2h0
			c0.3,1.2,0.7,2.5,1.2,3.6c0.2,0.6,0.8,1,1.5,1h10.5c1.2,0,2-1.3,1.4-2.3c-0.4-0.7-0.8-1.5-1.1-2.3h0c-1.4-3.1-2.1-6.6-2.1-10.2
			c0-14.2,11.6-25.8,25.8-25.8s25.8,11.6,25.8,25.8c0,3.6-0.8,7-2.1,10.2h0c-0.4,0.8-0.8,1.6-1.2,2.4c-0.6,1,0.2,2.2,1.3,2.2
			c3.2,0,8.5,0,10.7,0c0.6,0,1.2-0.4,1.4-0.9c0.5-1.2,0.9-2.4,1.2-3.7h0C141.4,154.2,141.9,150.8,141.9,147.2z"/>
		<path class="st1" d="M147.4,96.1c-26.9,0-48.8,21.9-48.8,48.8c0,4.3,0.6,8.4,1.6,12.4h0c0.3,1.3,0.7,2.5,1.1,3.7
			c0.2,0.6,0.8,1,1.5,1h10.3c1.1,0,1.9-1.2,1.4-2.2c-0.4-0.8-0.7-1.7-1-2.5h0c-1.4-3.9-2.2-8-2.2-12.4c0-19.9,16.2-36.1,36.1-36.1
			s36.1,16.2,36.1,36.1c0,4.4-0.8,8.5-2.2,12.4h0c-0.3,0.9-0.7,1.8-1.1,2.7c-0.4,1,0.3,2.1,1.3,2.1H192c0.6,0,1.2-0.4,1.4-1
			c0.4-1.2,0.8-2.5,1.1-3.7h0c1-4,1.6-8.1,1.6-12.4C196.1,118,174.2,96.1,147.4,96.1z"/>
		<path class="st2" d="M174.3,109c0-23.8-19.4-43.2-43.2-43.2c-23.8,0-43.2,19.4-43.2,43.2c0,1.3,0.1,2.6,0.2,3.9h12.7
			c-0.2-1.3-0.3-2.6-0.3-3.9c0-16.9,13.7-30.6,30.6-30.6c16.9,0,30.6,13.7,30.6,30.6c0,0.6,0,1.1,0,1.7h0c-0.3,6.3-2.5,12-6.1,16.7
			c-0.8,1.1,0,2.6,1.3,2.6h11.1c0.6,0,1.2-0.3,1.5-0.9c2.9-5.6,4.7-11.8,4.9-18.5h0C174.3,110.1,174.3,109.5,174.3,109z"/>
	</g>
</g>
</svg>
