<?xml version="1.0" encoding="utf-8"?>
<!-- Generator: Adobe Illustrator 20.1.0, SVG Export Plug-In . SVG Version: 6.00 Build 0)  -->
<svg version="1.1" id="Layer_1" xmlns="http://www.w3.org/2000/svg" xmlns:xlink="http://www.w3.org/1999/xlink" x="0px" y="0px"
	 viewBox="0 0 256 256" style="enable-background:new 0 0 256 256;" xml:space="preserve">
<style type="text/css">
	.st0{fill:#FFFFFF;}
	.st1{fill:#9DD8D5;}
	.st2{fill:none;stroke:#01AD9D;stroke-width:8;stroke-miterlimit:10;}
	.st3{fill:#00AC9C;}
</style>
<g>
	<path class="st0" d="M128,252C59.6,252,4,196.4,4,128S59.6,4,128,4s124,55.6,124,124S196.4,252,128,252z"/>
	<path class="st1" d="M128,8c32.1,0,62.2,12.5,84.9,35.1C235.5,65.8,248,95.9,248,128s-12.5,62.2-35.1,84.9
		C190.2,235.5,160.1,248,128,248s-62.2-12.5-84.9-35.1C20.5,190.2,8,160.1,8,128s12.5-62.2,35.1-84.9S95.9,8,128,8 M128,0
		C57.3,0,0,57.3,0,128s57.3,128,128,128s128-57.3,128-128S198.7,0,128,0L128,0z"/>
</g>
<path class="st2" d="M155.9,175.1h-54c-8.8,0-16-7.2-16-16v-54c0-8.8,7.2-16,16-16h54c8.8,0,16,7.2,16,16v54
	C171.9,168,164.8,175.1,155.9,175.1z"/>
<g>
	<path class="st3" d="M147.4,120.7c-2.7,0-5.3-1.1-7.2-3c-1.9-1.9-3-4.5-3-7.2c0-2.7,1.1-5.3,3-7.2l3.4-3.4h-25.9
		c-5.6,0-10.2-4.6-10.2-10.2s4.6-10.2,10.2-10.2h26.3l-3.9-3.9c-1.9-1.9-3-4.5-3-7.2c0-2.7,1.1-5.3,3-7.2c1.9-1.9,4.5-3,7.2-3
		c2.7,0,5.3,1.1,7.2,3l28.3,28.3l-28.3,28.3C152.7,119.6,150.1,120.7,147.4,120.7z"/>
	<path class="st0" d="M147.4,63c1.3,0,2.7,0.5,3.7,1.5l24.8,24.8l-24.8,24.8c-1,1-2.4,1.5-3.7,1.5s-2.7-0.5-3.7-1.5
		c-2.1-2.1-2.1-5.4,0-7.5l11.9-11.9h-37.8c-2.9,0-5.3-2.4-5.3-5.3s2.4-5.3,5.3-5.3H156L143.7,72c-2.1-2.1-2.1-5.4,0-7.5
		C144.7,63.6,146.1,63,147.4,63 M147.4,53.2c-4.1,0-7.9,1.6-10.7,4.4c-2.9,2.9-4.4,6.7-4.4,10.7c0,2.2,0.4,4.2,1.3,6.1h-15.8
		c-8.4,0-15.2,6.8-15.2,15.2c0,8.4,6.8,15.2,15.2,15.2h15.7c-0.7,1.8-1.1,3.7-1.1,5.7c0,4,1.6,7.9,4.4,10.7
		c2.9,2.9,6.7,4.4,10.7,4.4c4.1,0,7.9-1.6,10.7-4.4l24.8-24.8l7-7l-7-7l-24.8-24.8C155.3,54.7,151.5,53.2,147.4,53.2L147.4,53.2z"/>
</g>
</svg>
