<?xml version="1.0" encoding="utf-8"?>
<!-- Generator: Adobe Illustrator 20.1.0, SVG Export Plug-In . SVG Version: 6.00 Build 0)  -->
<svg version="1.1" id="Layer_1" xmlns="http://www.w3.org/2000/svg" xmlns:xlink="http://www.w3.org/1999/xlink" x="0px" y="0px"
	 viewBox="0 0 256 256" style="enable-background:new 0 0 256 256;" xml:space="preserve">
<style type="text/css">
	.st0{fill:#FFFFFF;}
	.st1{fill:#9DD8D5;}
	.st2{fill:#01AD9D;}
</style>
<g>
	<path class="st0" d="M127,252.6c-68.4,0-124-55.6-124-124s55.6-124,124-124c68.4,0,124,55.6,124,124S195.3,252.6,127,252.6z"/>
	<path class="st1" d="M127,8.6c32.1,0,62.2,12.5,84.9,35.1c22.7,22.7,35.1,52.8,35.1,84.9s-12.5,62.2-35.1,84.9
		c-22.7,22.7-52.8,35.1-84.9,35.1s-62.2-12.5-84.9-35.1C19.5,190.8,7,160.7,7,128.6s12.5-62.2,35.1-84.9C64.8,21.1,94.9,8.6,127,8.6
		 M127,0.6C56.3,0.6-1,57.9-1,128.6s57.3,128,128,128s128-57.3,128-128S197.7,0.6,127,0.6L127,0.6z"/>
</g>
<g>
	<path class="st2" d="M183.2,132.3l-25.6-11.8V88.3c0-1-0.6-1.9-1.5-2.3L129,73.5c-0.7-0.3-1.5-0.3-2.1,0L99.8,86
		c-0.9,0.4-1.5,1.3-1.5,2.3v32.2l-25.6,11.8c-0.9,0.4-1.5,1.3-1.5,2.3v34.3c0,1,0.6,1.9,1.5,2.3l27.1,12.5c0.3,0.2,0.7,0.2,1.1,0.2
		s0.7-0.1,1.1-0.2l26-12l26,12c0.3,0.2,0.7,0.2,1.1,0.2s0.7-0.1,1.1-0.2l27.1-12.5c0.9-0.4,1.5-1.3,1.5-2.3v-34.3
		C184.6,133.6,184.1,132.7,183.2,132.3z M155,144.3l-20.5-9.5l21-9.7l20.5,9.5L155,144.3z M103.4,148.7l22-10.2v28.7l-22,10.2V148.7
		z M152.5,120.5l-22,10.2v-28.3l22-10.2V120.5z M125.4,130.7l-22-10.2V92.2l22,10.2V130.7z M127.9,78.6l21,9.7l-21,9.7l-21-9.7
		L127.9,78.6z M100.3,125.1l21,9.7l-20.5,9.5l-21-9.7L100.3,125.1z M76.3,138.6l22,10.2v28.7l-22-10.2V138.6z M130.5,138.6l22,10.2
		v28.7l-22-10.2V138.6z M157.6,177.5v-28.7l22-10.2v28.7L157.6,177.5z"/>
	<polygon class="st2" points="127.9,78.6 149,88.3 127.9,98 106.9,88.3 	"/>
	<polygon class="st2" points="100.3,125.1 121.4,134.9 100.8,144.3 79.8,134.6 	"/>
	<polygon class="st2" points="155,144.3 134.5,134.9 155.5,125.1 176.1,134.6 	"/>
	<polygon class="st1" points="76.3,138.6 98.3,148.7 98.3,177.5 76.3,167.3 	"/>
	<polygon class="st1" points="125.4,130.7 103.4,120.5 103.4,92.2 125.4,102.4 	"/>
	<polygon class="st1" points="130.5,138.6 152.5,148.7 152.5,177.5 130.5,167.3 	"/>
</g>
</svg>
