<?xml version="1.0" encoding="utf-8"?>
<!-- Generator: Adobe Illustrator 20.1.0, SVG Export Plug-In . SVG Version: 6.00 Build 0)  -->
<svg version="1.1" id="Layer_1" xmlns="http://www.w3.org/2000/svg" xmlns:xlink="http://www.w3.org/1999/xlink" x="0px" y="0px"
	 viewBox="0 0 256 256" style="enable-background:new 0 0 256 256;" xml:space="preserve">
<style type="text/css">
	.st0{fill:#FFFFFF;}
	.st1{fill:#9DD8D5;}
	.st2{fill:#00AC9C;}
	.st3{fill:none;stroke:#00AC9C;stroke-width:8;stroke-miterlimit:10;}
	.st4{fill:none;stroke:#00AC9C;stroke-width:8;stroke-linecap:round;stroke-miterlimit:10;}
</style>
<g>
	<g>
		<path class="st0" d="M128.1,251.6c-68.4,0-124-55.6-124-124c0-68.4,55.6-124,124-124s124,55.6,124,124
			C252.1,196,196.5,251.6,128.1,251.6z"/>
		<path class="st1" d="M128.1,7.6c32.1,0,62.2,12.5,84.9,35.1s35.1,52.8,35.1,84.9s-12.5,62.2-35.1,84.9
			c-22.7,22.7-52.8,35.1-84.9,35.1s-62.2-12.5-84.9-35.1c-22.7-22.7-35.1-52.8-35.1-84.9s12.5-62.2,35.1-84.9
			C65.9,20.1,96,7.6,128.1,7.6 M128.1-0.4c-70.7,0-128,57.3-128,128s57.3,128,128,128s128-57.3,128-128S198.8-0.4,128.1-0.4
			L128.1-0.4z"/>
	</g>
</g>
<g>
	<g>
		<path class="st1" d="M168.6,158.9l3.3,0.9c1.1,0.3,1.6,1.6,0.9,2.5l-14.2,20.8c-0.3,0.4-0.8,0.7-1.3,0.7l-45,0.7
			c-0.4,0-0.8,0.1-1,0.4l-5.7,4.9c-0.7,0.6-1.7,0.5-2.3-0.2l-12.1-14.2c-0.6-0.7-0.5-1.7,0.1-2.3l17.2-16.2c0.3-0.3,0.7-0.5,1.2-0.4
			l31.5,1c0.7,0,1.3,0.5,1.5,1.1l0.9,2.6c0.1,0.4,0.1,0.8,0,1.2l-1.1,2.7c-0.2,0.6-0.8,1-1.5,1l-8.9,0.3c-0.8,0-1.5,0.6-1.6,1.5l0,0
			c-0.1,1,0.6,1.8,1.6,1.8l21,0.6c0.4,0,0.8-0.1,1.1-0.4l13-10.8C167.5,158.9,168.1,158.8,168.6,158.9z"/>
		<path class="st2" d="M83.6,176l-3.8,3.2c-1.2,1-1.3,2.8-0.3,4l14.5,17c1,1.2,2.8,1.3,4,0.3l3.8-3.2c1.2-1,1.3-2.8,0.3-4l-14.5-17
			C86.6,175.2,84.8,175,83.6,176z M96.3,196.6c-2.1,0.4-4-1.4-3.5-3.5c0.2-1.2,1.2-2.1,2.4-2.4c2.1-0.4,4,1.4,3.5,3.5
			C98.4,195.4,97.4,196.3,96.3,196.6z"/>
	</g>
</g>
<ellipse class="st3" cx="131" cy="80.3" rx="28.7" ry="12.1"/>
<path class="st4" d="M158.8,102.6c0,0-27,13.4-55.2,0"/>
<path class="st4" d="M158.7,118.2c0,0-27,13.4-55.2,0"/>
<path class="st4" d="M158.9,133.9c0,0-27,13.4-55.2,0"/>
</svg>
