<?xml version="1.0" encoding="utf-8"?>
<!-- Generator: Adobe Illustrator 20.1.0, SVG Export Plug-In . SVG Version: 6.00 Build 0)  -->
<svg version="1.1" id="Layer_1" xmlns="http://www.w3.org/2000/svg" xmlns:xlink="http://www.w3.org/1999/xlink" x="0px" y="0px"
	 viewBox="0 0 256 256" style="enable-background:new 0 0 256 256;" xml:space="preserve">
<style type="text/css">
	.st0{fill:#FFFFFF;}
	.st1{fill:#9DD8D5;}
	.st2{fill:none;stroke:#00AE9E;stroke-width:8;stroke-linecap:round;stroke-miterlimit:10;}
	.st3{fill:none;stroke:#00AE9E;stroke-width:8;stroke-miterlimit:10;}
</style>
<g>
	<path class="st0" d="M128.1,251.6c-68.4,0-124-55.6-124-124c0-68.4,55.6-124,124-124c68.4,0,124,55.6,124,124
		C252.1,196,196.5,251.6,128.1,251.6z"/>
	<path class="st1" d="M128.1,7.6c32.1,0,62.2,12.5,84.9,35.1c22.7,22.7,35.1,52.8,35.1,84.9s-12.5,62.2-35.1,84.9
		c-22.7,22.7-52.8,35.1-84.9,35.1S66,235.1,43.3,212.4c-22.7-22.7-35.1-52.8-35.1-84.9s12.5-62.2,35.1-84.9
		C66,20.1,96.1,7.6,128.1,7.6 M128.1-0.4c-70.7,0-128,57.3-128,128s57.3,128,128,128s128-57.3,128-128S198.8-0.4,128.1-0.4
		L128.1-0.4z"/>
</g>
<g>
	<path class="st2" d="M75,179.6c0-25.9,24.1-38.7,53.9-38.7s53.9,12.6,53.9,38.7"/>
	<circle class="st3" cx="128.9" cy="96.8" r="27"/>
</g>
</svg>
