<?xml version="1.0" encoding="utf-8"?>
<!-- Generator: Adobe Illustrator 20.1.0, SVG Export Plug-In . SVG Version: 6.00 Build 0)  -->
<svg version="1.1" id="Layer_1" xmlns="http://www.w3.org/2000/svg" xmlns:xlink="http://www.w3.org/1999/xlink" x="0px" y="0px"
	 viewBox="0 0 256 256" style="enable-background:new 0 0 256 256;" xml:space="preserve">
<style type="text/css">
	.st0{fill:#FFFFFF;}
	.st1{fill:#9DD8D5;}
	.st2{fill:#FFFFFF;stroke:#00AE9E;stroke-width:8;stroke-linecap:round;stroke-linejoin:round;stroke-miterlimit:10;}
	.st3{fill:#FFFFFF;stroke:#00AE9E;stroke-width:7.02;stroke-linecap:round;stroke-linejoin:round;stroke-miterlimit:10;}
</style>
<g>
	<g>
		<path class="st0" d="M127,253.3c-68.4,0-124-55.6-124-124C3,61,58.6,5.3,127,5.3c68.4,0,124,55.6,124,124
			C251,197.7,195.3,253.3,127,253.3z"/>
		<path class="st1" d="M127,9.3c32.1,0,62.2,12.5,84.9,35.1c22.7,22.7,35.1,52.8,35.1,84.9s-12.5,62.2-35.1,84.9
			c-22.7,22.7-52.8,35.1-84.9,35.1s-62.2-12.5-84.9-35.1C19.5,191.5,7,161.4,7,129.3s12.5-62.2,35.1-84.9
			C64.8,21.8,94.9,9.3,127,9.3 M127,1.3C56.3,1.3-1,58.6-1,129.3s57.3,128,128,128s128-57.3,128-128S197.7,1.3,127,1.3L127,1.3z"/>
	</g>
	<path class="st2" d="M83.1,74.1h11.2c1.9,0,3.4,1.5,3.4,3.4v33.5c0,1.9,1.5,3.4,3.4,3.4h16.7c1.9,0,3.4-1.5,3.4-3.4V77.5
		c0-1.9,1.5-3.4,3.4-3.4h11.9c1.9,0,3.4,1.5,3.4,3.4v34.7c0,1.9,1.5,3.4,3.4,3.4h32.9c1.9,0,3.4,1.5,3.4,3.4v51.5
		c0,1.9-1.5,3.4-3.4,3.4H83.1c-1.9,0-3.4-1.5-3.4-3.4V77.5C79.7,75.6,81.3,74.1,83.1,74.1z"/>
	<rect x="141.9" y="135.5" class="st3" width="19" height="19"/>
</g>
</svg>
