<?xml version="1.0" encoding="utf-8"?>
<!-- Generator: Adobe Illustrator 20.1.0, SVG Export Plug-In . SVG Version: 6.00 Build 0)  -->
<svg version="1.1" id="Layer_1" xmlns="http://www.w3.org/2000/svg" xmlns:xlink="http://www.w3.org/1999/xlink" x="0px" y="0px"
	 viewBox="0 0 256 256" style="enable-background:new 0 0 256 256;" xml:space="preserve">
<style type="text/css">
	.st0{fill:#FFFFFF;}
	.st1{fill:#9DD8D5;}
	.st2{fill:#01AD9D;}
</style>
<g>
	<path class="st0" d="M127.2,252.6c-68.4,0-124-55.6-124-124s55.6-124,124-124s124,55.6,124,124S195.5,252.6,127.2,252.6z"/>
	<path class="st1" d="M127.2,8.6c32.1,0,62.2,12.5,84.9,35.1c22.7,22.7,35.1,52.8,35.1,84.9s-12.5,62.2-35.1,84.9
		c-22.7,22.7-52.8,35.1-84.9,35.1S65,236.1,42.3,213.5c-22.7-22.7-35.1-52.8-35.1-84.9s12.5-62.2,35.1-84.9S95.1,8.6,127.2,8.6
		 M127.2,0.6c-70.7,0-128,57.3-128,128s57.3,128,128,128s128-57.3,128-128S197.9,0.6,127.2,0.6L127.2,0.6z"/>
</g>
<path class="st2" d="M184.3,135.7c1.2-1.1,2-2.3,2-3.8l0-11.3c0-0.1,0-0.2,0-0.3c-0.1-1.6-1.1-2.8-2.4-3.7c1.4-1.1,2.4-2.5,2.4-4.2
	v-11.3c0-0.1,0-0.2,0-0.3c-0.1-3.2-4.2-4.7-6.2-5.5c-5.9-2.2-37.1-14.6-43-16.8c-2.8-1-5.2-1.7-7.8-1.7c-2.8,0-5.7,0.8-9.3,2.1
	c-6.9,2.5-39.1,15.1-46.2,17.9c-1.8,0.7-6.2,2.4-6,5.8v11.5c0,1.6,0.9,2.9,2.3,4c-1.3,0.9-2.4,2.2-2.3,4v11.5c0,1.4,0.7,2.6,1.9,3.6
	c-1.1,0.9-2,2.1-1.9,3.6v11.5c0,2.8,2.9,4.6,6.1,6.1c6.1,2.9,39.5,16.4,44.7,18.9c3,1.4,5.4,2.1,7.9,2.1c3.3,0,6.4-0.9,10.1-2.8
	c6.5-3.4,37.9-16.6,44.1-19.8c3-1.6,5.8-3.4,5.8-6.3l0-11.3c0-0.1,0-0.2,0-0.3C186.2,137.6,185.4,136.5,184.3,135.7z M121.6,84.1
	c3.7-1.3,5.8-1.8,7.6-1.8c1.6,0,3.3,0.4,6.1,1.4c0.9,0.3,34,13.2,43.4,17c1.5,0.6,2.4,2,2.4,3.7v7.9c-0.7,0.8-2.7,1.8-3.6,2.3
	l-0.1-0.1c-2.8,1.5-40.5,17.7-44.1,19.5c-3,1.6-5.2,2.3-7.1,2.3c-1.5,0-3-0.4-5.1-1.4c-2.6-1.3-41.7-17.4-44.7-18.9l-0.1,0.1
	c-1-0.4-2.9-1.4-3.6-2.1l0-8.2c0-1.6,0.9-3,2.3-3.6C84.8,98,120,84.6,121.6,84.1z M181.1,148.2c0,1.4-0.7,2.7-1.9,3.4
	c-7.9,4.4-36.3,15.8-45.2,20.5c-2.9,1.5-5.3,2.2-7.7,2.2c-1.7,0-3.4-0.5-5.6-1.5c-7.7-3.7-37.1-15.1-45.6-19.4
	c-1.3-0.7-2.1-2-2.1-3.5l0-8.4c0.2-0.2,0.9-0.6,2.1-1.1c3.4,1.5,43,18.1,44,18.6c2.8,1.4,5,1.9,7.3,1.9c2.7,0,5.7-0.9,9.5-2.9
	c3.1-1.6,37.3-16.3,43.2-19.1c1.2,0.5,1.9,0.8,2.1,1L181.1,148.2z M178,133.6l1.1,2.1l0,0l-1.3-2.1c-0.1,0.1-0.2,0.2-0.3,0.2
	l-0.1-0.2c-2.8,1.5-40.5,17.7-44.1,19.5c-3,1.6-5.2,2.3-7.1,2.3c-1.5,0-3-0.4-5.1-1.4c-2.7-1.3-41.7-17.4-44.7-18.9l-0.1,0.2
	c-0.2-0.1-0.3-0.2-0.5-0.3c-2-1-2.8-1.6-3.1-1.8l0-10.7c0.3-0.2,1-0.7,2.7-1.4l0.2-0.1c4.2,1.8,42.3,17.8,43.2,18.2
	c2.8,1.4,5,1.9,7.3,1.9c2.7,0,5.7-0.9,9.5-2.9c3-1.6,35-15.3,42.4-18.8l0.1,0c1.7,0.6,2.5,1.1,2.8,1.3l0,10.5
	C180.8,131.9,180.1,132.5,178,133.6z"/>
<path class="st2" d="M130.8,121.9l6.9-10.1l-22.8,3.5L130.8,121.9z"/>
<path class="st2" d="M102.2,110.2c7.1,0,12.9-2.2,12.9-5c0-2.8-5.8-5-12.9-5c-7.1,0-12.9,2.2-12.9,5
	C89.3,108,95.1,110.2,102.2,110.2z"/>
<path class="st2" d="M126.1,97.7l3.5,5.8l2.2-5.3l11-1.1l-8.7-3.3l2-4.8l-7.5,2.5l-8.3-3.2l2.7,4.9l-9.5,3.4L126.1,97.7z"/>
<path class="st2" d="M153.1,110.7l12.7-5.1l-12.3-4.7l-12.7,5.1L153.1,110.7z"/>
</svg>
