<?xml version="1.0" encoding="utf-8"?>
<!-- Generator: Adobe Illustrator 20.1.0, SVG Export Plug-In . SVG Version: 6.00 Build 0)  -->
<svg version="1.1" id="Layer_1" xmlns="http://www.w3.org/2000/svg" xmlns:xlink="http://www.w3.org/1999/xlink" x="0px" y="0px"
	 viewBox="0 0 256 256" style="enable-background:new 0 0 256 256;" xml:space="preserve">
<style type="text/css">
	.st0{fill:#FFFFFF;}
	.st1{fill:#9DD8D5;}
	.st2{fill:#00AE9E;}
	.st3{fill:none;stroke:#00AE9E;stroke-width:8;stroke-miterlimit:10;}
	.st4{fill:none;stroke:#00AE9E;stroke-width:8;stroke-linecap:round;stroke-linejoin:round;stroke-miterlimit:10;}
</style>
<g>
	<g>
		<path class="st0" d="M126.8,253.3c-68.4,0-124-55.6-124-124c0-68.4,55.6-124,124-124s124,55.6,124,124
			C250.8,197.7,195.2,253.3,126.8,253.3z"/>
		<path class="st1" d="M126.8,9.3c32.1,0,62.2,12.5,84.9,35.1c22.7,22.7,35.1,52.8,35.1,84.9s-12.5,62.2-35.1,84.9
			c-22.7,22.7-52.8,35.1-84.9,35.1s-62.2-12.5-84.9-35.1c-22.7-22.7-35.1-52.8-35.1-84.9s12.5-62.2,35.1-84.9
			C64.6,21.8,94.7,9.3,126.8,9.3 M126.8,1.3c-70.7,0-128,57.3-128,128s57.3,128,128,128s128-57.3,128-128S197.5,1.3,126.8,1.3
			L126.8,1.3z"/>
	</g>
	<g>
		<path class="st2" d="M179.9,133.1"/>
		<line class="st3" x1="126.8" y1="127.5" x2="126.8" y2="160.4"/>
		<path class="st2" d="M77.8,135.2c-10.2,0-18.5-8.3-18.5-18.5s8.3-18.5,18.5-18.5s18.5,8.3,18.5,18.5S88,135.2,77.8,135.2z
			 M77.8,104.7c-6.6,0-12,5.4-12,12s5.4,12,12,12s12-5.4,12-12S84.4,104.7,77.8,104.7z"/>
		<circle class="st2" cx="126.8" cy="117" r="18.2"/>
		<circle class="st2" cx="176.1" cy="117" r="18.2"/>
		<polyline class="st4" points="77.8,135.2 77.8,160.4 175.7,160.4 175.7,135.5 		"/>
	</g>
</g>
</svg>
