<?xml version="1.0" encoding="utf-8"?>
<!-- Generator: Adobe Illustrator 20.1.0, SVG Export Plug-In . SVG Version: 6.00 Build 0)  -->
<svg version="1.1" id="Layer_1" xmlns="http://www.w3.org/2000/svg" xmlns:xlink="http://www.w3.org/1999/xlink" x="0px" y="0px"
	 viewBox="0 0 256 256" style="enable-background:new 0 0 256 256;" xml:space="preserve">
<style type="text/css">
	.st0{fill:#FFFFFF;}
	.st1{fill:#9DD8D5;}
	.st2{fill:#00AE9E;}
	.st3{fill:none;stroke:#9DD8D5;stroke-width:8;stroke-linecap:round;stroke-linejoin:round;stroke-miterlimit:10;}
	.st4{fill:#01AD9D;}
	.st5{fill:none;stroke:#00AE9E;stroke-width:8;stroke-linecap:round;stroke-linejoin:round;stroke-miterlimit:10;}
</style>
<g>
	<path class="st0" d="M127,252.6c-68.4,0-124-55.6-124-124s55.6-124,124-124c68.4,0,124,55.6,124,124S195.3,252.6,127,252.6z"/>
	<path class="st1" d="M127,8.6c32.1,0,62.2,12.5,84.9,35.1c22.7,22.7,35.1,52.8,35.1,84.9s-12.5,62.2-35.1,84.9
		c-22.7,22.7-52.8,35.1-84.9,35.1s-62.2-12.5-84.9-35.1C19.5,190.8,7,160.7,7,128.6s12.5-62.2,35.1-84.9C64.8,21.1,94.9,8.6,127,8.6
		 M127,0.6C56.3,0.6-1,57.9-1,128.6s57.3,128,128,128s128-57.3,128-128S197.7,0.6,127,0.6L127,0.6z"/>
</g>
<g>
	<path class="st2" d="M178.9,135.9"/>
	<line class="st3" x1="144.9" y1="142.9" x2="144.9" y2="175"/>
	<circle class="st4" cx="144.9" cy="133.6" r="12.1"/>
	<line class="st3" x1="183.9" y1="97.9" x2="183.9" y2="174.9"/>
	<circle class="st4" cx="183.9" cy="83.5" r="12.1"/>
	<line class="st3" x1="106" y1="120.8" x2="106" y2="174.9"/>
	<circle class="st4" cx="106" cy="112.3" r="12.1"/>
	<line class="st3" x1="66.8" y1="146.3" x2="66.8" y2="175.3"/>
	<circle class="st4" cx="67.1" cy="139.5" r="12.1"/>
	<polyline class="st5" points="67.6,141.4 105.3,110 143.8,139.8 182.3,87.2 	"/>
</g>
</svg>
