<?xml version="1.0" encoding="utf-8"?>
<!-- Generator: Adobe Illustrator 20.1.0, SVG Export Plug-In . SVG Version: 6.00 Build 0)  -->
<svg version="1.1" id="Layer_1" xmlns="http://www.w3.org/2000/svg" xmlns:xlink="http://www.w3.org/1999/xlink" x="0px" y="0px"
	 viewBox="0 0 256 256" style="enable-background:new 0 0 256 256;" xml:space="preserve">
<style type="text/css">
	.st0{fill:#FFFFFF;}
	.st1{fill:#9DD8D5;}
	.st2{fill:#00AE9E;}
	.st3{fill:none;stroke:#00AE9E;stroke-width:8;stroke-miterlimit:10;}
</style>
<g>
	<path class="st0" d="M126.8,252.6c-68.4,0-124-55.6-124-124s55.6-124,124-124s124,55.6,124,124S195.2,252.6,126.8,252.6z"/>
	<path class="st1" d="M126.8,8.6c32.1,0,62.2,12.5,84.9,35.1c22.7,22.7,35.1,52.8,35.1,84.9s-12.5,62.2-35.1,84.9
		c-22.7,22.7-52.8,35.1-84.9,35.1s-62.2-12.5-84.9-35.1c-22.7-22.7-35.1-52.8-35.1-84.9s12.5-62.2,35.1-84.9
		C64.6,21.1,94.7,8.6,126.8,8.6 M126.8,0.6c-70.7,0-128,57.3-128,128s57.3,128,128,128s128-57.3,128-128S197.5,0.6,126.8,0.6
		L126.8,0.6z"/>
</g>
<g>
	<path class="st2" d="M104.1,157.7c-1,1.2-2.7,1.4-3.9,0.4c-1.2-1-1.4-2.7-0.4-3.9c1-1.2,2.7-1.4,3.9-0.4
		C104.9,154.8,105.1,156.5,104.1,157.7z M148.2,148c-8,10.7-25.2,7.1-36.2,7.6c0,0-1.9,0.1-3.9,0.4c0,0,0.7-0.3,1.7-0.6
		c7.7-2.7,11.4-3.2,16.1-5.6c8.8-4.5,17.6-14.3,19.4-24.6c-3.4,9.8-13.6,18.3-22.8,21.7c-6.4,2.3-17.9,4.6-17.9,4.6
		c0,0-0.5-0.2-0.5-0.2c-7.8-3.8-8-20.7,6.2-26.2c6.2-2.4,12.2-1.1,18.9-2.7c7.2-1.7,15.5-7.1,18.9-14.1
		C151.8,119.5,156.4,137.1,148.2,148z"/>
	<path class="st3" d="M172.8,117.8c-0.5-0.4-0.8-1.1-1.1-2.2c-1-3.7-3-6.9-5.2-9.9c-2.8-3.8-6-7.2-9.6-10.3
		c-7.5-6.1-17-9.7-27.4-9.7c-7.7,0-15.3,2.1-21.9,5.9c-7.1,4.2-12.3,10.3-17.1,16.9c-0.5,0.7-0.6,1.1-1.4,1.2
		c-15.3,1.9-27.2,14.9-27.2,30.8c0,17.1,13.9,31,31,31h71.5c15.1,0,27.3-12.2,27.3-27.3c0-6.1-2.1-12.1-5.8-16.8
		c-1.8-2.3-4-4.4-6.5-6c-1.3-0.9-2.6-1.6-4-2.2C174.2,118.5,173.4,118.3,172.8,117.8z"/>
</g>
</svg>
