<?xml version="1.0" encoding="utf-8"?>
<!-- Generator: Adobe Illustrator 20.1.0, SVG Export Plug-In . SVG Version: 6.00 Build 0)  -->
<svg version="1.1" id="Layer_1" xmlns="http://www.w3.org/2000/svg" xmlns:xlink="http://www.w3.org/1999/xlink" x="0px" y="0px"
	 viewBox="0 0 256 256" style="enable-background:new 0 0 256 256;" xml:space="preserve">
<style type="text/css">
	.st0{fill:#FFFFFF;}
	.st1{fill:#9DD8D5;}
	.st2{fill:#00AE9E;stroke:#00AE9E;stroke-width:8.6411;stroke-linejoin:round;stroke-miterlimit:10;}
	.st3{fill:none;stroke:#00AE9E;stroke-width:7.0016;stroke-miterlimit:10;}
</style>
<g>
	<path class="st0" d="M126.8,252.6c-68.4,0-124-55.6-124-124s55.6-124,124-124s124,55.6,124,124S195.2,252.6,126.8,252.6z"/>
	<path class="st1" d="M126.8,8.6c32.1,0,62.2,12.5,84.9,35.1c22.7,22.7,35.1,52.8,35.1,84.9s-12.5,62.2-35.1,84.9
		c-22.7,22.7-52.8,35.1-84.9,35.1s-62.2-12.5-84.9-35.1c-22.7-22.7-35.1-52.8-35.1-84.9s12.5-62.2,35.1-84.9
		C64.6,21.1,94.7,8.6,126.8,8.6 M126.8,0.6c-70.7,0-128,57.3-128,128s57.3,128,128,128s128-57.3,128-128S197.5,0.6,126.8,0.6
		L126.8,0.6z"/>
</g>
<g>
	<path class="st2" d="M129.9,75.6H80v118.8h49.8c32.8,0,59.4-26.6,59.4-59.4S162.7,75.6,129.9,75.6z M149.7,171"/>
	<path class="st0" d="M130.2,79.9H84V190h46.2c30.4,0,55-24.6,55-55S160.6,79.9,130.2,79.9z M148.6,168.4"/>
	<path class="st3" d="M94.7,107.6H114c0.3,0,0.6,0.1,0.8,0.3l14.2,14c0.4,0.4,1.1,0.4,1.6,0l14.8-14c0.2-0.2,0.5-0.3,0.8-0.3h18.4
		c0.9,0,1.4,0.9,1,1.7l-14.3,25.1c-0.2,0.4-0.2,0.8,0,1.1l14.3,24.8c0.4,0.8-0.1,1.7-1,1.7h-18.4c-0.3,0-0.6-0.1-0.8-0.3l-14.9-13.9
		c-0.4-0.4-1.1-0.4-1.6,0l-14.1,14c-0.2,0.2-0.5,0.3-0.8,0.3H95.1c-0.9,0-1.4-1-1-1.8l16.2-25c0.2-0.4,0.2-0.9,0-1.2l-16.5-24.9
		C93.2,108.6,93.8,107.6,94.7,107.6z"/>
</g>
</svg>
